<?xml version="1.0" encoding="UTF-8"?>
<svg id="Layer_1" xmlns="http://www.w3.org/2000/svg" viewBox="0 0 109.84 109.82">
  <defs>
    <style>
      .cls-1 {
        fill: #fff;
      }
    </style>
  </defs>
  <path class="cls-1" d="M107.6,39.36c-1.59-5.41-4-10.48-7.16-15.15l.1-.07-2.18-2.82c-3.14-4.06-6.79-7.61-10.9-10.63l.29-.17-5.01-2.95C74.34,2.62,64.72,0,54.93,0c-1.23,0-2.45.04-3.66.12-8.52.56-16.8,3.11-24.15,7.44t0,.01l-5.01,2.95.28.17c-3.39,2.5-6.48,5.36-9.23,8.58-.57.67-1.13,1.35-1.66,2.05l-2.19,2.82.11.07c-1.06,1.56-2.03,3.17-2.92,4.83-1.76,3.28-3.19,6.72-4.24,10.31,0,0,0,.01,0,.01l-.71,2.42.06.04c-.73,2.99-1.22,6.04-1.44,9.13-.09,1.32-.14,2.64-.14,3.97,0,.6.01,1.2.03,1.8.06,1.68.18,3.34.38,4.96t0,0l.21,1.75.03.02c.1.61.2,1.22.32,1.83.23,1.19.5,2.37.81,3.55.2.77.43,1.54.66,2.3,1.91,6.18,4.91,12.01,8.88,17.19,10.49,13.68,26.39,21.51,43.6,21.51s32.41-7.53,42.9-20.67l.06-.02.63-.82c5.59-7.27,9.25-15.83,10.67-24.86l.03-.02.22-1.75c.27-2.21.41-4.49.41-6.76,0-5.31-.76-10.54-2.24-15.56ZM36.74,10.42c.56-.23,1.12-.44,1.68-.65.16-.06.32-.12.48-.17.65-.24,1.31-.45,1.97-.65.09-.03.18-.06.28-.08.58-.18,1.18-.34,1.78-.49.17-.04.33-.09.51-.13.67-.16,1.35-.32,2.03-.46.07-.02.15-.02.22-.04.62-.12,1.24-.23,1.87-.33.17-.03.35-.05.53-.08.69-.1,1.38-.18,2.07-.26.05,0,.09,0,.13,0,.66-.06,1.32-.11,1.98-.15.18-.01.36-.02.55-.02.7-.04,1.41-.05,2.11-.05s1.4.02,2.11.05c.18,0,.36.01.54.02.66.04,1.32.08,1.98.15.04,0,.09,0,.13,0,.69.07,1.39.16,2.08.26.17.03.35.05.53.08.62.09,1.25.2,1.86.32.08.01.15.02.23.04.68.14,1.35.29,2.02.46.17.04.34.09.51.13.59.15,1.18.31,1.76.49.1.02.19.05.29.08.66.2,1.31.42,1.96.65.16.06.33.12.49.18.56.21,1.11.42,1.66.64.08.04.16.06.24.1-5.81,2.4-12.07,3.66-18.41,3.66s-12.61-1.25-18.42-3.66c.08-.04.15-.06.23-.09ZM102.91,57.58c-.01.24-.03.47-.05.7-.02.28-.05.54-.07.81-10.32,5.34-21.36,8.88-32.87,10.54-1.87.27-3.17,2-2.9,3.88.25,1.71,1.71,2.94,3.39,2.94.16,0,.33-.02.5-.04,10.57-1.53,20.77-4.54,30.43-8.99-.01.06-.04.12-.05.19-.08.29-.16.58-.24.87-.06.21-.14.43-.2.65-.08.28-.17.56-.26.84-.07.22-.15.43-.22.65-.1.27-.19.56-.29.83-.08.21-.16.42-.24.64-.11.27-.21.55-.32.82-.08.21-.17.42-.26.64-.11.27-.23.53-.35.8-.09.21-.19.42-.29.63-.12.26-.25.52-.37.79-.1.2-.2.41-.3.62-.14.26-.26.52-.4.78-.11.2-.21.41-.32.61-.14.26-.28.51-.42.76-.11.2-.22.4-.35.6-.15.25-.3.5-.45.75-.12.2-.24.4-.36.59-.16.25-.31.49-.47.73-.13.2-.26.4-.39.58-.16.24-.34.48-.5.72-.14.19-.27.38-.41.57-.06.09-.12.17-.18.26-12.46,4.13-25.49,6.22-38.76,6.22-3.19,0-6.4-.12-9.57-.36-1.89-.14-3.54,1.27-3.68,3.15-.14,1.89,1.27,3.53,3.15,3.68,3.34.25,6.73.39,10.1.39,9.88,0,19.64-1.1,29.16-3.29-8.27,6.34-18.42,9.85-29.16,9.85-15.07,0-28.97-6.86-38.16-18.83-3.84-5-6.63-10.69-8.26-16.71,9.66,4.45,19.87,7.46,30.44,8.99,1.88.27,3.61-1.03,3.88-2.9.27-1.87-1.03-3.61-2.9-3.88-11.5-1.66-22.55-5.2-32.87-10.54-.02-.27-.05-.53-.07-.8-.01-.24-.04-.47-.05-.72-.05-.88-.08-1.77-.08-2.66,0-3.1.3-6.17.88-9.17,14.27,8.48,30.48,12.97,47.19,12.97,10.21,0,20.25-1.66,29.84-4.94,1.79-.61,2.75-2.55,2.14-4.35-.61-1.79-2.57-2.75-4.36-2.14-8.87,3.03-18.17,4.57-27.62,4.57-16.11,0-31.73-4.48-45.33-12.99.21-.6.43-1.2.67-1.79.01-.03.02-.06.04-.1.25-.61.5-1.21.77-1.81.09-.21.2-.41.3-.63.19-.41.39-.83.6-1.25.12-.24.25-.47.37-.71.2-.38.41-.76.62-1.14.13-.24.27-.48.41-.72.22-.37.45-.75.67-1.12.14-.22.28-.45.42-.67.18-.28.37-.55.56-.82,7.75,5.01,16.24,8.47,25.3,10.3,1.86.38,3.66-.82,4.04-2.68.38-1.86-.83-3.66-2.68-4.03-8.01-1.62-15.54-4.64-22.42-9,.12-.14.25-.28.38-.42.16-.18.33-.36.49-.53.34-.36.69-.71,1.04-1.06.16-.15.3-.3.46-.44.5-.49,1.02-.97,1.54-1.43,0,0,.01-.01.01-.01.52-.46,1.05-.9,1.59-1.33.16-.14.34-.27.51-.4.38-.3.78-.6,1.17-.89.19-.14.39-.28.59-.42.4-.29.8-.56,1.21-.83.18-.11.36-.24.55-.36.05-.04.09-.06.14-.09,7.96,4.28,16.9,6.54,26,6.54s18.03-2.26,25.99-6.53c.05.03.1.06.15.09.18.12.36.24.53.36.42.28.82.56,1.23.84.2.14.39.28.58.43.4.29.79.59,1.19.9.16.12.33.25.49.38,1.09.88,2.14,1.8,3.15,2.77.15.14.29.29.44.44.36.35.7.71,1.04,1.07.16.17.33.34.49.52.12.14.25.28.37.41-6.89,4.37-14.41,7.39-22.41,9-1.86.37-3.05,2.17-2.68,4.03.33,1.63,1.76,2.75,3.36,2.75.22,0,.45-.02.68-.07,9.05-1.82,17.54-5.29,25.29-10.3,2.74,4.06,4.83,8.47,6.22,13.18,1.3,4.38,1.96,8.96,1.96,13.61,0,.89-.03,1.78-.08,2.66Z"/>
  <g>
    <path class="cls-1" d="M58.86,70.63c-2.61.1-5.29.09-7.88,0-1.89-.07-3.48,1.4-3.55,3.3-.07,1.89,1.41,3.48,3.3,3.55,1.38.05,2.8.08,4.2.08s2.8-.03,4.19-.08c1.89-.07,3.37-1.66,3.3-3.55-.07-1.89-1.67-3.39-3.55-3.3Z"/>
    <path class="cls-1" d="M54.92,32.02c-2.45,0-4.42,1.97-4.42,4.42s1.98,4.42,4.42,4.42,4.42-1.98,4.42-4.42-1.98-4.42-4.42-4.42Z"/>
    <path class="cls-1" d="M94.03,42.61c-2.28,0-4.14,1.85-4.14,4.14s1.85,4.15,4.14,4.15,4.14-1.86,4.14-4.15-1.85-4.14-4.14-4.14Z"/>
    <path class="cls-1" d="M34.69,86.52c-2.08,0-3.77,1.69-3.77,3.77s1.69,3.78,3.77,3.78,3.77-1.69,3.77-3.78-1.69-3.77-3.77-3.77Z"/>
  </g>
</svg>